# xmcd CD database file
#
# Track frame offsets:
#	150
#	13075
#	26400
#	40152
#	53042
#	66442
#	78732
#	91882
#	102740
#	114482
#	128940
#	140542
#	153602
#	165170
#	176665
#	188785
#	201357
#	214997
#	226857
#	239365
#	250335
#	261477
#
# Disc length: 3638 seconds
#
# Revision: 0
# Processed by: cddbd v1.5PL3 Copyright (c) Steve Scherf et al.
# Submitted via: CDex 1.51
#
DISCID=3f0e3416
DTITLE=Jimmy Work - Making Believe (1 of 2)
DYEAR=1993
DGENRE=Country
TTITLE0=Those Kentucky Bluegrass Hill
TTITLE1=You're Gone, I Won't Forget
TTITLE2=Rainy, Rainy Blues
TTITLE3=Hear That Steamboat Whistle Blow
TTITLE4=Tennessee Border
TTITLE5=Your Jealous Heart Is Broken Now
TTITLE6=Bluegrass Tickling My Feet
TTITLE7=Please Don't Let Me Love You
TTITLE8=I Would Send You Roses (But They Cost Too Much)
TTITLE9=Surrounded by Water and Bars
TTITLE10=Smokey Mountain Moon
TTITLE11=Who's Been Here Since I've Been Gone
TTITLE12=Mr. and Mrs. Cloud
TTITLE13=Hospitality
TTITLE14=Pickup Truck
TTITLE15=Do Your Honky Tonkin' at Home
TTITLE16=Southern Fried Chicken
TTITLE17=Let's Live a Little
TTITLE18=If I Should Lose You
TTITLE19=Don't Play With My Heart
TTITLE20=I'm Lonesome for Someone
TTITLE21=Puttin' on the Dog (Tom Cattin' Around)
EXTD=YEAR: 1993
EXTT0=
EXTT1=
EXTT2=
EXTT3=
EXTT4=
EXTT5=
EXTT6=
EXTT7=
EXTT8=
EXTT9=
EXTT10=
EXTT11=
EXTT12=
EXTT13=
EXTT14=
EXTT15=
EXTT16=
EXTT17=
EXTT18=
EXTT19=
EXTT20=
EXTT21=
PLAYORDER=
